<?xml version="1.0" encoding="UTF-8" standalone="no"?>
<!DOCTYPE svg PUBLIC "-//W3C//DTD SVG 1.1//EN"
 "http://www.w3.org/Graphics/SVG/1.1/DTD/svg11.dtd">
<!-- Generated by graphviz version 2.36.0 (20140111.2315)
 -->
<!-- Title: G Pages: 1 -->
<svg width="622pt" height="780pt"
 viewBox="0.00 0.00 622.00 780.00" xmlns="http://www.w3.org/2000/svg" xmlns:xlink="http://www.w3.org/1999/xlink">
<g id="graph0" class="graph" transform="scale(1 1) rotate(0) translate(4 776)">
<title>G</title>
<polygon fill="white" stroke="none" points="-4,4 -4,-776 618,-776 618,4 -4,4"/>
<g id="clust1" class="cluster"><title>cluster_Global</title>
<path fill="none" stroke="gray" d="M20,-8C20,-8 594,-8 594,-8 600,-8 606,-14 606,-20 606,-20 606,-752 606,-752 606,-758 600,-764 594,-764 594,-764 20,-764 20,-764 14,-764 8,-758 8,-752 8,-752 8,-20 8,-20 8,-14 14,-8 20,-8"/>
<text text-anchor="middle" x="307" y="-751.2" font-family="Times,serif" font-size="11.00" fill="gray">Global</text>
</g>
<g id="clust2" class="cluster"><title>cluster_\botbasic</title>
<path fill="none" stroke="gray" d="M28,-16C28,-16 586,-16 586,-16 592,-16 598,-22 598,-28 598,-28 598,-724 598,-724 598,-730 592,-736 586,-736 586,-736 28,-736 28,-736 22,-736 16,-730 16,-724 16,-724 16,-28 16,-28 16,-22 22,-16 28,-16"/>
<text text-anchor="middle" x="307" y="-723.2" font-family="Times,serif" font-size="11.00" fill="gray">botbasic</text>
</g>
<!-- \\botbasic\\DBbroker -->
<g id="node1" class="node"><title>\\botbasic\\DBbroker</title>
<polygon fill="none" stroke="black" points="552.5,-708 481.5,-708 481.5,-672 552.5,-672 552.5,-708"/>
<text text-anchor="middle" x="517" y="-687.2" font-family="Courier,monospace" font-size="11.00">DBbroker</text>
</g>
<!-- \\botbasic\\BizModelAdapter -->
<g id="node2" class="node"><title>\\botbasic\\BizModelAdapter</title>
<polygon fill="none" stroke="black" points="576,-654 458,-654 458,-618 576,-618 576,-654"/>
<text text-anchor="middle" x="517" y="-633.2" font-family="Courier,monospace" font-size="11.00">BizModelAdapter</text>
</g>
<!-- \\botbasic\\BizModelAdapterTemplate -->
<g id="node9" class="node"><title>\\botbasic\\BizModelAdapterTemplate</title>
<polygon fill="none" stroke="black" points="372,-708 200,-708 200,-672 372,-672 372,-708"/>
<text text-anchor="start" x="252" y="-693.2" font-family="Courier,monospace" font-size="11.00">«abstract»</text>
<text text-anchor="start" x="208" y="-681.2" font-family="Courier,monospace" font-size="11.00">BizModelAdapterTemplate</text>
</g>
<!-- \\botbasic\\BizModelAdapter&#45;&gt;\\botbasic\\BizModelAdapterTemplate -->
<g id="edge1" class="edge"><title>\\botbasic\\BizModelAdapter&#45;&gt;\\botbasic\\BizModelAdapterTemplate</title>
<path fill="none" stroke="black" d="M457.918,-649.696C432.315,-655.734 401.695,-662.954 373.49,-669.605"/>
<polygon fill="none" stroke="black" points="372.557,-666.229 363.627,-671.931 374.163,-673.042 372.557,-666.229"/>
</g>
<!-- \\botbasic\\Splash -->
<g id="node3" class="node"><title>\\botbasic\\Splash</title>
<polygon fill="none" stroke="black" points="545.5,-546 488.5,-546 488.5,-510 545.5,-510 545.5,-546"/>
<text text-anchor="middle" x="517" y="-525.2" font-family="Courier,monospace" font-size="11.00">Splash</text>
</g>
<!-- \\botbasic\\Interaction -->
<g id="node21" class="node"><title>\\botbasic\\Interaction</title>
<polygon fill="none" stroke="black" points="331.5,-546 240.5,-546 240.5,-510 331.5,-510 331.5,-546"/>
<text text-anchor="start" x="252" y="-531.2" font-family="Courier,monospace" font-size="11.00">«abstract»</text>
<text text-anchor="start" x="248.5" y="-519.2" font-family="Courier,monospace" font-size="11.00">Interaction</text>
</g>
<!-- \\botbasic\\Splash&#45;&gt;\\botbasic\\Interaction -->
<g id="edge2" class="edge"><title>\\botbasic\\Splash&#45;&gt;\\botbasic\\Interaction</title>
<path fill="none" stroke="black" d="M488.377,-528C452.213,-528 387.998,-528 341.793,-528"/>
<polygon fill="none" stroke="black" points="341.639,-524.5 331.639,-528 341.639,-531.5 341.639,-524.5"/>
</g>
<!-- \\botbasic\\BotBasicParser -->
<g id="node4" class="node"><title>\\botbasic\\BotBasicParser</title>
<polygon fill="none" stroke="black" points="341.5,-654 230.5,-654 230.5,-618 341.5,-618 341.5,-654"/>
<text text-anchor="middle" x="286" y="-633.2" font-family="Courier,monospace" font-size="11.00">BotBasicParser</text>
</g>
<!-- \\botbasic\\BotBasic -->
<g id="node18" class="node"><title>\\botbasic\\BotBasic</title>
<polygon fill="none" stroke="black" points="118,-613 34,-613 34,-577 118,-577 118,-613"/>
<text text-anchor="start" x="42" y="-598.2" font-family="Courier,monospace" font-size="11.00">«abstract»</text>
<text text-anchor="start" x="48.5" y="-586.2" font-family="Courier,monospace" font-size="11.00">BotBasic</text>
</g>
<!-- \\botbasic\\BotBasicParser&#45;&gt;\\botbasic\\BotBasic -->
<g id="edge3" class="edge"><title>\\botbasic\\BotBasicParser&#45;&gt;\\botbasic\\BotBasic</title>
<path fill="none" stroke="black" d="M230.35,-625.228C198.773,-619.003 159.295,-611.222 128.302,-605.112"/>
<polygon fill="none" stroke="black" points="128.629,-601.61 118.141,-603.109 127.275,-608.477 128.629,-601.61"/>
</g>
<!-- \\botbasic\\WebRouterCliStub -->
<g id="node5" class="node"><title>\\botbasic\\WebRouterCliStub</title>
<polygon fill="none" stroke="black" points="579.5,-222 454.5,-222 454.5,-186 579.5,-186 579.5,-222"/>
<text text-anchor="middle" x="517" y="-201.2" font-family="Courier,monospace" font-size="11.00">WebRouterCliStub</text>
</g>
<!-- \\botbasic\\WebRouter -->
<g id="node12" class="node"><title>\\botbasic\\WebRouter</title>
<polygon fill="none" stroke="black" points="328,-222 244,-222 244,-186 328,-186 328,-222"/>
<text text-anchor="start" x="252" y="-207.2" font-family="Courier,monospace" font-size="11.00">«abstract»</text>
<text text-anchor="start" x="255.5" y="-195.2" font-family="Courier,monospace" font-size="11.00">WebRouter</text>
</g>
<!-- \\botbasic\\WebRouterCliStub&#45;&gt;\\botbasic\\WebRouter -->
<g id="edge4" class="edge"><title>\\botbasic\\WebRouterCliStub&#45;&gt;\\botbasic\\WebRouter</title>
<path fill="none" stroke="black" d="M454.331,-204C418.075,-204 372.767,-204 338.444,-204"/>
<polygon fill="none" stroke="black" points="338.167,-200.5 328.167,-204 338.167,-207.5 338.167,-200.5"/>
</g>
<!-- \\botbasic\\Update -->
<g id="node6" class="node"><title>\\botbasic\\Update</title>
<polygon fill="none" stroke="black" points="545.5,-600 488.5,-600 488.5,-564 545.5,-564 545.5,-600"/>
<text text-anchor="middle" x="517" y="-579.2" font-family="Courier,monospace" font-size="11.00">Update</text>
</g>
<!-- \\botbasic\\Update&#45;&gt;\\botbasic\\Interaction -->
<g id="edge5" class="edge"><title>\\botbasic\\Update&#45;&gt;\\botbasic\\Interaction</title>
<path fill="none" stroke="black" d="M488.377,-575.486C452.137,-566.941 387.728,-551.752 341.502,-540.852"/>
<polygon fill="none" stroke="black" points="342.175,-537.415 331.639,-538.526 340.568,-544.228 342.175,-537.415"/>
</g>
<!-- \\botbasic\\BotBasicRuntime -->
<g id="node7" class="node"><title>\\botbasic\\BotBasicRuntime</title>
<polygon fill="none" stroke="black" points="345,-600 227,-600 227,-564 345,-564 345,-600"/>
<text text-anchor="middle" x="286" y="-579.2" font-family="Courier,monospace" font-size="11.00">BotBasicRuntime</text>
</g>
<!-- \\botbasic\\BotBasicRuntime&#45;&gt;\\botbasic\\BotBasic -->
<g id="edge6" class="edge"><title>\\botbasic\\BotBasicRuntime&#45;&gt;\\botbasic\\BotBasic</title>
<path fill="none" stroke="black" d="M226.784,-585.639C195.822,-587.574 158.095,-589.932 128.251,-591.797"/>
<polygon fill="none" stroke="black" points="127.81,-588.317 118.048,-592.435 128.246,-595.304 127.81,-588.317"/>
</g>
<!-- \\botbasic\\Closable -->
<g id="node24" class="node"><title>\\botbasic\\Closable</title>
<polygon fill="none" stroke="black" points="111.5,-438 40.5,-438 40.5,-402 111.5,-402 111.5,-438"/>
<text text-anchor="middle" x="76" y="-417.2" font-family="Courier,monospace" font-size="11.00">Closable</text>
</g>
<!-- \\botbasic\\BotBasicRuntime&#45;&gt;\\botbasic\\Closable -->
<g id="edge8" class="edge"><title>\\botbasic\\BotBasicRuntime&#45;&gt;\\botbasic\\Closable</title>
<path fill="none" stroke="black" stroke-dasharray="1,5" d="M226.915,-568.072C217.533,-564.569 208.214,-560.262 200,-555 176.272,-539.8 126.196,-480.624 97.7996,-445.868"/>
<polygon fill="none" stroke="black" points="100.438,-443.565 91.413,-438.015 95.0072,-447.982 100.438,-443.565"/>
</g>
<!-- \\botbasic\\Initializable -->
<g id="node25" class="node"><title>\\botbasic\\Initializable</title>
<polygon fill="none" stroke="black" points="128,-532 24,-532 24,-496 128,-496 128,-532"/>
<text text-anchor="middle" x="76" y="-511.2" font-family="Courier,monospace" font-size="11.00">Initializable</text>
</g>
<!-- \\botbasic\\BotBasicRuntime&#45;&gt;\\botbasic\\Initializable -->
<g id="edge7" class="edge"><title>\\botbasic\\BotBasicRuntime&#45;&gt;\\botbasic\\Initializable</title>
<path fill="none" stroke="black" stroke-dasharray="1,5" d="M227.812,-563.957C218.508,-560.986 208.981,-557.923 200,-555 179.674,-548.385 157.504,-541.036 137.653,-534.407"/>
<polygon fill="none" stroke="black" points="138.707,-531.069 128.113,-531.218 136.487,-537.708 138.707,-531.069"/>
</g>
<!-- \\botbasic\\ChatMediumTelegram -->
<g id="node8" class="node"><title>\\botbasic\\ChatMediumTelegram</title>
<polygon fill="none" stroke="black" points="586,-492 448,-492 448,-456 586,-456 586,-492"/>
<text text-anchor="middle" x="517" y="-471.2" font-family="Courier,monospace" font-size="11.00">ChatMediumTelegram</text>
</g>
<!-- \\botbasic\\ChatMedium -->
<g id="node11" class="node"><title>\\botbasic\\ChatMedium</title>
<polygon fill="none" stroke="black" points="328,-384 244,-384 244,-348 328,-348 328,-384"/>
<text text-anchor="start" x="252" y="-369.2" font-family="Courier,monospace" font-size="11.00">«abstract»</text>
<text text-anchor="start" x="252" y="-357.2" font-family="Courier,monospace" font-size="11.00">ChatMedium</text>
</g>
<!-- \\botbasic\\ChatMediumTelegram&#45;&gt;\\botbasic\\ChatMedium -->
<g id="edge9" class="edge"><title>\\botbasic\\ChatMediumTelegram&#45;&gt;\\botbasic\\ChatMedium</title>
<path fill="none" stroke="black" d="M462.539,-455.917C456.168,-453.191 449.854,-450.207 444,-447 408.919,-427.783 407.562,-411.313 372,-393 361.46,-387.572 349.62,-382.976 338.202,-379.199"/>
<polygon fill="none" stroke="black" points="338.909,-375.753 328.319,-376.091 336.808,-382.43 338.909,-375.753"/>
</g>
<!-- \\botbasic\\LogbotChatMedium -->
<g id="node23" class="node"><title>\\botbasic\\LogbotChatMedium</title>
<polygon fill="none" stroke="black" points="348.5,-492 223.5,-492 223.5,-456 348.5,-456 348.5,-492"/>
<text text-anchor="middle" x="286" y="-471.2" font-family="Courier,monospace" font-size="11.00">LogbotChatMedium</text>
</g>
<!-- \\botbasic\\ChatMediumTelegram&#45;&gt;\\botbasic\\LogbotChatMedium -->
<g id="edge10" class="edge"><title>\\botbasic\\ChatMediumTelegram&#45;&gt;\\botbasic\\LogbotChatMedium</title>
<path fill="none" stroke="black" stroke-dasharray="1,5" d="M447.912,-474C419.849,-474 387.307,-474 358.862,-474"/>
<polygon fill="none" stroke="black" points="358.583,-470.5 348.583,-474 358.583,-477.5 358.583,-470.5"/>
</g>
<!-- \\botbasic\\BizModelProvider -->
<g id="node10" class="node"><title>\\botbasic\\BizModelProvider</title>
<polygon fill="none" stroke="black" points="579.5,-384 454.5,-384 454.5,-348 579.5,-348 579.5,-384"/>
<text text-anchor="middle" x="517" y="-363.2" font-family="Courier,monospace" font-size="11.00">BizModelProvider</text>
</g>
<!-- \\botbasic\\BotBasicChannel -->
<g id="node13" class="node"><title>\\botbasic\\BotBasicChannel</title>
<polygon fill="none" stroke="black" points="345,-168 227,-168 227,-132 345,-132 345,-168"/>
<text text-anchor="middle" x="286" y="-147.2" font-family="Courier,monospace" font-size="11.00">BotBasicChannel</text>
</g>
<!-- \\botbasic\\BotBasicChannel&#45;&gt;\\botbasic\\Closable -->
<g id="edge12" class="edge"><title>\\botbasic\\BotBasicChannel&#45;&gt;\\botbasic\\Closable</title>
<path fill="none" stroke="black" stroke-dasharray="1,5" d="M226.899,-161.599C217.204,-165.377 207.784,-170.378 200,-177 131.408,-235.351 96.7977,-341.374 83.5713,-391.842"/>
<polygon fill="none" stroke="black" points="80.1291,-391.178 81.0689,-401.731 86.9152,-392.895 80.1291,-391.178"/>
</g>
<!-- \\botbasic\\BotBasicChannel&#45;&gt;\\botbasic\\Initializable -->
<g id="edge11" class="edge"><title>\\botbasic\\BotBasicChannel&#45;&gt;\\botbasic\\Initializable</title>
<path fill="none" stroke="black" stroke-dasharray="1,5" d="M226.565,-159.972C216.672,-163.906 207.268,-169.382 200,-177 114.268,-266.856 182.647,-335.475 128,-447 120.788,-461.719 110.11,-476.397 100.385,-488.247"/>
<polygon fill="none" stroke="black" points="97.6441,-486.068 93.8599,-495.964 102.989,-490.588 97.6441,-486.068"/>
</g>
<!-- \\botbasic\\ChatMediumCliStub -->
<g id="node14" class="node"><title>\\botbasic\\ChatMediumCliStub</title>
<polygon fill="none" stroke="black" points="582.5,-330 451.5,-330 451.5,-294 582.5,-294 582.5,-330"/>
<text text-anchor="middle" x="517" y="-309.2" font-family="Courier,monospace" font-size="11.00">ChatMediumCliStub</text>
</g>
<!-- \\botbasic\\ChatMediumCliStub&#45;&gt;\\botbasic\\ChatMedium -->
<g id="edge13" class="edge"><title>\\botbasic\\ChatMediumCliStub&#45;&gt;\\botbasic\\ChatMedium</title>
<path fill="none" stroke="black" d="M451.296,-327.258C415.457,-335.709 371.535,-346.066 338.124,-353.945"/>
<polygon fill="none" stroke="black" points="337.042,-350.604 328.113,-356.305 338.649,-357.417 337.042,-350.604"/>
</g>
<!-- \\botbasic\\InteractionResource -->
<g id="node15" class="node"><title>\\botbasic\\InteractionResource</title>
<polygon fill="none" stroke="black" points="589.5,-276 444.5,-276 444.5,-240 589.5,-240 589.5,-276"/>
<text text-anchor="middle" x="517" y="-255.2" font-family="Courier,monospace" font-size="11.00">InteractionResource</text>
</g>
<!-- \\botbasic\\WebRouterTelegram -->
<g id="node16" class="node"><title>\\botbasic\\WebRouterTelegram</title>
<polygon fill="none" stroke="black" points="582.5,-168 451.5,-168 451.5,-132 582.5,-132 582.5,-168"/>
<text text-anchor="middle" x="517" y="-147.2" font-family="Courier,monospace" font-size="11.00">WebRouterTelegram</text>
</g>
<!-- \\botbasic\\WebRouterTelegram&#45;&gt;\\botbasic\\WebRouter -->
<g id="edge14" class="edge"><title>\\botbasic\\WebRouterTelegram&#45;&gt;\\botbasic\\WebRouter</title>
<path fill="none" stroke="black" d="M451.296,-165.258C415.457,-173.709 371.535,-184.066 338.124,-191.945"/>
<polygon fill="none" stroke="black" points="337.042,-188.604 328.113,-194.305 338.649,-195.417 337.042,-188.604"/>
</g>
<!-- \\botbasic\\WebRouterWebStub -->
<g id="node17" class="node"><title>\\botbasic\\WebRouterWebStub</title>
<polygon fill="none" stroke="black" points="579.5,-114 454.5,-114 454.5,-78 579.5,-78 579.5,-114"/>
<text text-anchor="middle" x="517" y="-93.2" font-family="Courier,monospace" font-size="11.00">WebRouterWebStub</text>
</g>
<!-- \\botbasic\\WebRouterWebStub&#45;&gt;\\botbasic\\WebRouter -->
<g id="edge15" class="edge"><title>\\botbasic\\WebRouterWebStub&#45;&gt;\\botbasic\\WebRouter</title>
<path fill="none" stroke="black" d="M462.539,-114.083C456.168,-116.809 449.854,-119.793 444,-123 408.919,-142.217 407.562,-158.687 372,-177 361.46,-182.428 349.62,-187.024 338.202,-190.801"/>
<polygon fill="none" stroke="black" points="336.808,-187.57 328.319,-193.909 338.909,-194.247 336.808,-187.57"/>
</g>
<!-- \\botbasic\\ChatMediumWebStub -->
<g id="node19" class="node"><title>\\botbasic\\ChatMediumWebStub</title>
<polygon fill="none" stroke="black" points="582.5,-438 451.5,-438 451.5,-402 582.5,-402 582.5,-438"/>
<text text-anchor="middle" x="517" y="-417.2" font-family="Courier,monospace" font-size="11.00">ChatMediumWebStub</text>
</g>
<!-- \\botbasic\\ChatMediumWebStub&#45;&gt;\\botbasic\\ChatMedium -->
<g id="edge16" class="edge"><title>\\botbasic\\ChatMediumWebStub&#45;&gt;\\botbasic\\ChatMedium</title>
<path fill="none" stroke="black" d="M451.296,-404.742C415.457,-396.291 371.535,-385.934 338.124,-378.055"/>
<polygon fill="none" stroke="black" points="338.649,-374.583 328.113,-375.695 337.042,-381.396 338.649,-374.583"/>
</g>
<!-- \\botbasic\\ChatMediumChannel -->
<g id="node20" class="node"><title>\\botbasic\\ChatMediumChannel</title>
<polygon fill="none" stroke="black" points="351.5,-438 220.5,-438 220.5,-402 351.5,-402 351.5,-438"/>
<text text-anchor="middle" x="286" y="-417.2" font-family="Courier,monospace" font-size="11.00">ChatMediumChannel</text>
</g>
<!-- \\botbasic\\ChatMediumChannel&#45;&gt;\\botbasic\\Closable -->
<g id="edge18" class="edge"><title>\\botbasic\\ChatMediumChannel&#45;&gt;\\botbasic\\Closable</title>
<path fill="none" stroke="black" stroke-dasharray="1,5" d="M220.328,-420C188.358,-420 150.573,-420 121.828,-420"/>
<polygon fill="none" stroke="black" points="121.674,-416.5 111.674,-420 121.674,-423.5 121.674,-416.5"/>
</g>
<!-- \\botbasic\\ChatMediumChannel&#45;&gt;\\botbasic\\Initializable -->
<g id="edge17" class="edge"><title>\\botbasic\\ChatMediumChannel&#45;&gt;\\botbasic\\Initializable</title>
<path fill="none" stroke="black" stroke-dasharray="1,5" d="M223.205,-438.093C215.31,-440.852 207.406,-443.841 200,-447 170.647,-459.52 139.065,-476.811 115.253,-490.691"/>
<polygon fill="none" stroke="black" points="113.371,-487.738 106.528,-495.827 116.922,-493.77 113.371,-487.738"/>
</g>
<!-- \\botbasic\\Interaction&#45;&gt;\\botbasic\\Initializable -->
<g id="edge19" class="edge"><title>\\botbasic\\Interaction&#45;&gt;\\botbasic\\Initializable</title>
<path fill="none" stroke="black" stroke-dasharray="1,5" d="M240.379,-524.997C210.65,-522.996 171.187,-520.339 138.493,-518.139"/>
<polygon fill="none" stroke="black" points="138.349,-514.621 128.136,-517.442 137.879,-521.606 138.349,-514.621"/>
</g>
<!-- \\botbasic\\Log -->
<g id="node22" class="node"><title>\\botbasic\\Log</title>
<polygon fill="none" stroke="black" points="544,-60 490,-60 490,-24 544,-24 544,-60"/>
<text text-anchor="middle" x="517" y="-39.2" font-family="Courier,monospace" font-size="11.00">Log</text>
</g>
</g>
</svg>
